<svg xmlns="http://www.w3.org/2000/svg" viewBox="0 0 32 32"><path d="M24.48,12.12a1,1,0,0,0-1,0l-4,2.57a1,1,0,0,0-.46.84V14a3,3,0,0,0-3-3H10a3,3,0,0,0-3,3v4a3,3,0,0,0,3,3h6a3,3,0,0,0,3-3V16.43a1,1,0,0,0,.46.84l4,2.57A1,1,0,0,0,24,20a1,1,0,0,0,.48-.12A1,1,0,0,0,25,19V13A1,1,0,0,0,24.48,12.12ZM17,18a1,1,0,0,1-1,1H10a1,1,0,0,1-1-1V14a1,1,0,0,1,1-1h6a1,1,0,0,1,1,1Zm6-.83L21.18,16,23,14.83ZM16,2A14,14,0,0,0,2,16a13.85,13.85,0,0,0,3.73,9.48,7.19,7.19,0,0,1-2.12,2l-1.12.67A1,1,0,0,0,3,30H7a8.73,8.73,0,0,0,4-.95A14,14,0,1,0,16,2Zm0,26a12,12,0,0,1-4.69-.95h-.06a.48.48,0,0,0-.2,0l-.19,0-.17,0-.21.06-.05,0A6.84,6.84,0,0,1,7,28H6.19a8.94,8.94,0,0,0,1.67-2.15s0-.05,0-.07L8,25.59a1.25,1.25,0,0,0,0-.19,1.37,1.37,0,0,0,0-.19,1.16,1.16,0,0,0,0-.18,1.3,1.3,0,0,0-.08-.17.61.61,0,0,0-.12-.16.21.21,0,0,0,0-.06A12,12,0,1,1,16,28Z" data-name="22 video call"/></svg>