<?xml version="1.0" encoding="UTF-8" standalone="no"?>
<!DOCTYPE svg PUBLIC "-//W3C//DTD SVG 1.1//EN" "http://www.w3.org/Graphics/SVG/1.1/DTD/svg11.dtd">
<svg width="100%" height="100%" viewBox="0 0 41 41" version="1.1" xmlns="http://www.w3.org/2000/svg" xmlns:xlink="http://www.w3.org/1999/xlink" xml:space="preserve" xmlns:serif="http://www.serif.com/" style="fill-rule:evenodd;clip-rule:evenodd;stroke-linejoin:round;stroke-miterlimit:2;">
    <path d="M20.275,0C9.077,0 0,9.078 0,20.275C0,31.473 9.077,40.55 20.275,40.55C31.474,40.55 40.551,31.473 40.551,20.275C40.551,9.078 31.474,0 20.275,0ZM3.958,19.514L5.604,10.176L14.942,10.176L13.296,19.514L3.958,19.514ZM13.24,29.613L17.302,10.175L26.641,10.175L22.551,29.613L13.24,29.613ZM31.354,29.613C28.223,29.613 25.685,27.075 25.685,23.945C25.685,20.812 28.224,18.275 31.354,18.275C34.484,18.275 37.023,20.815 37.023,23.945C37.024,27.075 34.485,29.613 31.354,29.613Z" style="fill:rgb(156,145,134);fill-rule:nonzero;"/>
</svg>
